<svg width="260" height="260" viewBox="0 0 260 260" fill="none" xmlns="http://www.w3.org/2000/svg">
<rect width="260" height="260" fill="white"/>
<path d="M93.93 147.09C91.89 147.09 90.2467 146.467 89 145.22C87.8667 143.973 87.3 142.387 87.3 140.46V58.86C87.3 56.82 87.8667 55.2333 89 54.1C90.2467 52.8533 91.89 52.23 93.93 52.23C95.8567 52.23 97.3867 52.8533 98.52 54.1C99.7667 55.2333 100.39 56.82 100.39 58.86V140.46C100.39 142.387 99.7667 143.973 98.52 145.22C97.3867 146.467 95.8567 147.09 93.93 147.09ZM167.03 185C165.103 185 163.517 184.377 162.27 183.13C161.023 181.883 160.4 180.353 160.4 178.54V134.34C160.4 127.313 159.04 121.533 156.32 117C153.713 112.467 150.087 109.067 145.44 106.8C140.907 104.533 135.75 103.4 129.97 103.4C124.417 103.4 119.373 104.477 114.84 106.63C110.42 108.783 106.907 111.73 104.3 115.47C101.693 119.21 100.39 123.46 100.39 128.22H91.04C91.2667 121.08 93.1933 114.733 96.82 109.18C100.447 103.513 105.263 99.0933 111.27 95.92C117.277 92.6333 123.963 90.99 131.33 90.99C139.377 90.99 146.573 92.69 152.92 96.09C159.267 99.3767 164.253 104.25 167.88 110.71C171.62 117.17 173.49 125.047 173.49 134.34V178.54C173.49 180.353 172.867 181.883 171.62 183.13C170.373 184.377 168.843 185 167.03 185ZM93.93 185C91.89 185 90.2467 184.433 89 183.3C87.8667 182.053 87.3 180.467 87.3 178.54V98.64C87.3 96.6 87.8667 95.0133 89 93.88C90.2467 92.6333 91.89 92.01 93.93 92.01C95.8567 92.01 97.3867 92.6333 98.52 93.88C99.7667 95.0133 100.39 96.6 100.39 98.64V178.54C100.39 180.467 99.7667 182.053 98.52 183.3C97.3867 184.433 95.8567 185 93.93 185Z" fill="black"/>
</svg>
