<svg width="700" height="700" viewBox="0 0 700 700" fill="none" xmlns="http://www.w3.org/2000/svg">
<rect x="70" y="22" width="20" height="50" fill="white"/>
<rect x="105" y="467" width="20" height="50" fill="white"/>
<rect x="528" y="551" width="20" height="50" fill="white"/>
<rect x="121" y="223" width="50" height="50" fill="white"/>
<rect x="522" y="216" width="50" height="50" fill="white"/>
<rect x="295" y="431" width="60" height="50" fill="white"/>
<rect x="130" y="22" width="20" height="50" fill="white"/>
<rect x="610" y="22" width="20" height="50" fill="white"/>
<rect x="550" y="22" width="20" height="50" fill="white"/>
<rect x="490" y="22" width="20" height="50" fill="white"/>
<rect x="430" y="22" width="20" height="50" fill="white"/>
<rect x="370" y="22" width="20" height="50" fill="white"/>
<rect x="310" y="22" width="20" height="50" fill="white"/>
<rect x="250" y="22" width="20" height="50" fill="white"/>
<rect x="190" y="22" width="20" height="50" fill="white"/>
<line x1="80" y1="72" x2="80" y2="382" stroke="white" stroke-width="4"/>
<line x1="79.4142" y1="380.586" x2="115.477" y2="416.648" stroke="white" stroke-width="4"/>
<line x1="115" y1="416" x2="115" y2="467" stroke="white" stroke-width="4"/>
<line x1="140" y1="72" x2="140" y2="162" stroke="white" stroke-width="4"/>
<line x1="139.414" y1="160.586" x2="160.627" y2="181.799" stroke="white" stroke-width="4"/>
<line x1="160" y1="181" x2="160" y2="341" stroke="white" stroke-width="4"/>
<circle cx="160" cy="350" r="10" fill="white"/>
<circle cx="244" cy="629" r="10" fill="white"/>
<circle cx="276" cy="627" r="10" fill="white"/>
<circle cx="347" cy="627" r="10" fill="white"/>
<circle cx="373" cy="668" r="10" fill="white"/>
<circle cx="444" cy="660" r="10" fill="white"/>
<circle cx="482" cy="658" r="10" fill="white"/>
<circle cx="131" cy="329" r="10" fill="white"/>
<line x1="111" y1="91" x2="111" y2="161" stroke="white" stroke-width="4"/>
<line x1="110.414" y1="159.586" x2="131.627" y2="180.799" stroke="white" stroke-width="4"/>
<circle cx="111" cy="82" r="10" fill="white"/>
<circle cx="277" cy="118" r="10" fill="white"/>
<circle cx="411" cy="83" r="10" fill="white"/>
<circle cx="411" cy="231" r="10" fill="white"/>
<circle cx="406" cy="275" r="10" fill="white"/>
<circle cx="473" cy="336" r="10" fill="white"/>
<circle cx="437" cy="319" r="10" fill="white"/>
<circle cx="453" cy="369" r="10" fill="white"/>
<circle cx="453" cy="424" r="10" fill="white"/>
<circle cx="453" cy="542" r="10" fill="white"/>
<circle cx="504" cy="315" r="10" fill="white"/>
<circle cx="530" cy="83" r="10" fill="white"/>
<circle cx="590" cy="82" r="10" fill="white"/>
<circle cx="530" cy="131" r="10" fill="white"/>
<circle cx="299" cy="346" r="10" fill="white"/>
<circle cx="282" cy="180" r="10" fill="white"/>
<circle cx="323" cy="309" r="10" fill="white"/>
<line x1="131" y1="320" x2="131" y2="180" stroke="white" stroke-width="4"/>
<line x1="200" y1="72" x2="200" y2="112" stroke="white" stroke-width="4"/>
<line x1="200.556" y1="110.414" x2="186.414" y2="124.556" stroke="white" stroke-width="4"/>
<line x1="187" y1="123" x2="187" y2="373" stroke="white" stroke-width="4"/>
<line x1="186.414" y1="371.586" x2="285.409" y2="470.581" stroke="white" stroke-width="4"/>
<line x1="285" y1="469" x2="285" y2="589" stroke="white" stroke-width="4"/>
<line x1="285.77" y1="587.414" x2="250.414" y2="622.77" stroke="white" stroke-width="4"/>
<line x1="260" y1="72" x2="260" y2="102" stroke="white" stroke-width="4"/>
<line x1="260.627" y1="100.414" x2="239.414" y2="121.627" stroke="white" stroke-width="4"/>
<line x1="240" y1="120" x2="240" y2="370" stroke="white" stroke-width="4"/>
<line x1="239.414" y1="368.586" x2="303.054" y2="432.225" stroke="white" stroke-width="4"/>
<line x1="303" y1="431" x2="303" y2="601" stroke="white" stroke-width="4"/>
<line x1="303.698" y1="599.414" x2="282.485" y2="620.627" stroke="white" stroke-width="4"/>
<line x1="277" y1="127" x2="277" y2="147" stroke="white" stroke-width="4"/>
<line x1="277.627" y1="145.414" x2="256.414" y2="166.627" stroke="white" stroke-width="4"/>
<line x1="257.986" y1="164.993" x2="257.986" y2="304.993" stroke="white" stroke-width="4"/>
<line x1="257.414" y1="303.586" x2="292.77" y2="338.941" stroke="white" stroke-width="4"/>
<line x1="282" y1="189" x2="282" y2="269" stroke="white" stroke-width="4"/>
<line x1="281.414" y1="267.586" x2="316.77" y2="302.941" stroke="white" stroke-width="4"/>
<line x1="320" y1="72" x2="320" y2="152" stroke="white" stroke-width="4"/>
<line x1="319.414" y1="150.586" x2="361.841" y2="193.012" stroke="white" stroke-width="4"/>
<line x1="361" y1="192" x2="361" y2="332" stroke="white" stroke-width="4"/>
<line x1="361.912" y1="330.414" x2="319.485" y2="372.841" stroke="white" stroke-width="4"/>
<line x1="320" y1="371" x2="320" y2="601" stroke="white" stroke-width="4"/>
<line x1="319.414" y1="599.586" x2="340.627" y2="620.799" stroke="white" stroke-width="4"/>
<line x1="380" y1="72" x2="380" y2="342" stroke="white" stroke-width="4"/>
<line x1="380.77" y1="340.414" x2="345.414" y2="375.77" stroke="white" stroke-width="4"/>
<line x1="346" y1="374" x2="346" y2="584" stroke="white" stroke-width="4"/>
<line x1="345.414" y1="582.586" x2="373.698" y2="610.87" stroke="white" stroke-width="4"/>
<line x1="373" y1="609" x2="373" y2="659" stroke="white" stroke-width="4"/>
<line x1="411" y1="92" x2="411" y2="222" stroke="white" stroke-width="4"/>
<line x1="440" y1="72" x2="440" y2="242" stroke="white" stroke-width="4"/>
<line x1="440.414" y1="240.414" x2="412.13" y2="268.698" stroke="white" stroke-width="4"/>
<line x1="500" y1="72" x2="500" y2="132" stroke="white" stroke-width="4"/>
<line x1="500.698" y1="130.414" x2="472.414" y2="158.698" stroke="white" stroke-width="4"/>
<line x1="473" y1="157" x2="473" y2="327" stroke="white" stroke-width="4"/>
<line x1="560" y1="72" x2="560" y2="132" stroke="white" stroke-width="4"/>
<line x1="530" y1="92" x2="530" y2="122" stroke="white" stroke-width="4"/>
<line x1="560.166" y1="131.162" x2="531.882" y2="159.446" stroke="white" stroke-width="4"/>
<line x1="532" y1="158" x2="532" y2="288" stroke="white" stroke-width="4"/>
<line x1="620" y1="72" x2="620" y2="122" stroke="white" stroke-width="4"/>
<line x1="590" y1="91" x2="590" y2="131" stroke="white" stroke-width="4"/>
<line x1="590.698" y1="129.414" x2="562.414" y2="157.698" stroke="white" stroke-width="4"/>
<line x1="563" y1="156" x2="563" y2="216" stroke="white" stroke-width="4"/>
<line x1="532.092" y1="287.414" x2="510.879" y2="308.627" stroke="white" stroke-width="4"/>
<line x1="620.627" y1="120.414" x2="599.414" y2="141.627" stroke="white" stroke-width="4"/>
<line x1="600" y1="140" x2="600" y2="290" stroke="white" stroke-width="4"/>
<line x1="600.689" y1="288.414" x2="537.049" y2="352.054" stroke="white" stroke-width="4"/>
<line x1="538" y1="351" x2="538" y2="551" stroke="white" stroke-width="4"/>
<line x1="430.912" y1="325.414" x2="388.485" y2="367.841" stroke="white" stroke-width="4"/>
<line x1="389" y1="366" x2="389" y2="606" stroke="white" stroke-width="4"/>
<line x1="388.414" y1="604.586" x2="437.912" y2="654.083" stroke="white" stroke-width="4"/>
<line x1="446.77" y1="375.414" x2="411.414" y2="410.77" stroke="white" stroke-width="4"/>
<line x1="412" y1="409" x2="412" y2="589" stroke="white" stroke-width="4"/>
<line x1="411.414" y1="587.586" x2="475.054" y2="651.225" stroke="white" stroke-width="4"/>
<line x1="453" y1="433" x2="453" y2="533" stroke="white" stroke-width="4"/>
</svg>
